<svg xmlns="http://www.w3.org/2000/svg" width="960" height="540" viewBox="0 0 960 540" role="img">
<title>Convergência — Cenário médio</title>
<rect width="100%" height="100%" fill="#ffffff"/>
<text x="80" y="30" font-family="system-ui" font-size="20" font-weight="700">Convergência — Cenário médio</text>
<line x1="80" y1="55.00" x2="930" y2="55.00" stroke="#e2e8f0"/>
<text x="70" y="59.00" text-anchor="end" font-family="system-ui" font-size="11">15.364</text>
<line x1="80" y1="137.00" x2="930" y2="137.00" stroke="#e2e8f0"/>
<text x="70" y="141.00" text-anchor="end" font-family="system-ui" font-size="11">13.760</text>
<line x1="80" y1="219.00" x2="930" y2="219.00" stroke="#e2e8f0"/>
<text x="70" y="223.00" text-anchor="end" font-family="system-ui" font-size="11">12.157</text>
<line x1="80" y1="301.00" x2="930" y2="301.00" stroke="#e2e8f0"/>
<text x="70" y="305.00" text-anchor="end" font-family="system-ui" font-size="11">10.553</text>
<line x1="80" y1="383.00" x2="930" y2="383.00" stroke="#e2e8f0"/>
<text x="70" y="387.00" text-anchor="end" font-family="system-ui" font-size="11">8.949</text>
<line x1="80" y1="465.00" x2="930" y2="465.00" stroke="#e2e8f0"/>
<text x="70" y="469.00" text-anchor="end" font-family="system-ui" font-size="11">7.346</text>
<polyline points="80.00,84.04 85.31,211.30 90.62,211.30 95.94,240.23 101.25,246.29 106.56,265.07 111.88,265.07 117.19,275.98 122.50,297.70 127.81,299.79 133.12,320.57 138.44,320.57 143.75,320.57 149.06,323.63 154.38,323.63 159.69,334.75 165.00,336.80 170.31,336.80 175.62,346.57 180.94,348.82 186.25,359.79 191.56,359.79 196.88,359.79 202.19,361.83 207.50,361.83 212.81,367.02 218.12,367.02 223.44,370.58 228.75,375.29 234.06,378.56 239.38,378.56 244.69,388.86 250.00,388.86 255.31,398.75 260.62,398.75 265.94,398.75 271.25,400.95 276.56,400.95 281.88,400.95 287.19,400.95 292.50,400.95 297.81,400.95 303.12,403.37 308.44,403.37 313.75,403.37 319.06,403.66 324.38,403.66 329.69,404.50 335.00,408.77 340.31,408.77 345.62,408.77 350.94,416.67 356.25,416.67 361.56,421.27 366.88,421.27 372.19,421.27 377.50,421.27 382.81,421.27 388.12,421.27 393.44,422.17 398.75,422.17 404.06,422.17 409.38,422.17 414.69,426.76 420.00,432.14 425.31,432.14 430.62,432.14 435.94,432.14 441.25,432.14 446.56,432.35 451.88,432.35 457.19,437.58 462.50,437.58 467.81,437.58 473.12,437.58 478.44,437.66 483.75,437.73 489.06,438.71 494.38,438.71 499.69,438.71 505.00,438.71 510.31,439.72 515.62,439.72 520.94,439.72 526.25,439.72 531.56,440.11 536.88,440.11 542.19,441.12 547.50,441.96 552.81,443.04 558.12,443.12 563.44,443.12 568.75,443.12 574.06,443.12 579.38,443.12 584.69,443.61 590.00,443.61 595.31,445.85 600.62,445.85 605.94,445.85 611.25,445.85 616.56,445.85 621.88,445.85 627.19,445.85 632.50,445.85 637.81,446.42 643.12,446.42 648.44,446.42 653.75,446.42 659.06,446.42 664.38,446.42 669.69,446.42 675.00,449.37 680.31,449.37 685.62,450.19 690.94,453.14 696.25,453.14 701.56,456.52 706.88,456.52 712.19,456.52 717.50,456.52 722.81,458.45 728.12,458.45 733.44,459.32 738.75,461.18 744.06,461.18 749.38,461.25 754.69,461.25 760.00,461.25 765.31,461.75 770.62,461.75 775.94,461.82 781.25,461.82 786.56,461.97 791.88,461.97 797.19,461.97 802.50,463.10 807.81,463.10 813.12,463.10 818.44,463.10 823.75,463.10 829.06,463.10 834.38,463.10 839.69,463.10 845.00,463.10 850.31,463.10 855.62,463.10 860.94,463.10 866.25,463.10 871.56,463.10 876.88,463.10 882.19,463.10 887.50,463.10 892.81,463.10 898.12,463.10 903.44,463.10 908.75,463.10 914.06,463.10 919.38,463.10 924.69,463.10 930.00,465.00" fill="none" stroke="#2563eb" stroke-width="2.2" stroke-linejoin="round"/>
<line x1="80" y1="498" x2="102" y2="498" stroke="#2563eb" stroke-width="3"/>
<text x="108" y="502" font-family="system-ui" font-size="11">balanceada · seed 11</text>
<polyline points="80.00,84.04 85.31,154.85 90.62,171.69 95.94,171.69 101.25,201.95 106.56,215.48 111.88,226.96 117.19,242.59 122.50,254.93 127.81,292.61 133.12,292.61 138.44,292.61 143.75,320.24 149.06,320.24 154.38,331.97 159.69,331.97 165.00,331.97 170.31,331.97 175.62,340.32 180.94,340.32 186.25,341.95 191.56,341.95 196.88,349.98 202.19,359.65 207.50,359.84 212.81,366.63 218.12,369.68 223.44,369.68 228.75,369.68 234.06,369.68 239.38,369.68 244.69,369.68 250.00,369.68 255.31,369.68 260.62,372.50 265.94,372.50 271.25,372.50 276.56,378.04 281.88,378.04 287.19,379.86 292.50,386.03 297.81,386.54 303.12,389.21 308.44,392.70 313.75,392.70 319.06,396.32 324.38,396.32 329.69,400.96 335.00,400.96 340.31,400.96 345.62,400.96 350.94,400.96 356.25,400.96 361.56,404.82 366.88,406.33 372.19,416.91 377.50,416.91 382.81,416.91 388.12,416.91 393.44,416.91 398.75,419.66 404.06,430.03 409.38,430.03 414.69,430.83 420.00,430.83 425.31,432.36 430.62,432.78 435.94,432.78 441.25,432.78 446.56,432.78 451.88,432.78 457.19,432.78 462.50,432.78 467.81,432.78 473.12,432.78 478.44,432.78 483.75,435.11 489.06,435.11 494.38,436.91 499.69,436.91 505.00,443.27 510.31,443.27 515.62,443.27 520.94,443.27 526.25,443.27 531.56,443.27 536.88,443.27 542.19,449.68 547.50,449.68 552.81,449.68 558.12,449.68 563.44,449.68 568.75,449.68 574.06,449.68 579.38,449.68 584.69,449.68 590.00,449.68 595.31,450.93 600.62,450.93 605.94,451.98 611.25,451.98 616.56,451.98 621.88,452.74 627.19,452.74 632.50,452.74 637.81,452.74 643.12,453.79 648.44,453.79 653.75,453.79 659.06,453.79 664.38,453.79 669.69,453.79 675.00,453.79 680.31,453.79 685.62,453.79 690.94,455.96 696.25,455.96 701.56,455.96 706.88,455.96 712.19,455.96 717.50,455.96 722.81,455.96 728.12,457.66 733.44,457.66 738.75,457.66 744.06,457.66 749.38,457.66 754.69,457.66 760.00,457.66 765.31,457.66 770.62,457.66 775.94,457.66 781.25,457.66 786.56,457.66 791.88,457.66 797.19,457.66 802.50,457.66 807.81,457.66 813.12,459.20 818.44,459.20 823.75,459.20 829.06,459.20 834.38,459.20 839.69,459.20 845.00,459.20 850.31,461.11 855.62,461.98 860.94,461.98 866.25,461.98 871.56,461.98 876.88,463.89 882.19,463.89 887.50,463.89 892.81,463.89 898.12,463.89 903.44,463.89 908.75,463.89 914.06,463.89 919.38,463.89 924.69,463.89 930.00,463.89" fill="none" stroke="#dc2626" stroke-width="2.2" stroke-linejoin="round"/>
<line x1="350" y1="498" x2="372" y2="498" stroke="#dc2626" stroke-width="3"/>
<text x="378" y="502" font-family="system-ui" font-size="11">exploracao · seed 11</text>
<polyline points="80.00,55.00 85.31,134.58 90.62,253.83 95.94,285.98 101.25,285.98 106.56,297.87 111.88,297.87 117.19,315.20 122.50,315.20 127.81,317.13 133.12,320.22 138.44,321.41 143.75,324.27 149.06,324.27 154.38,330.99 159.69,338.56 165.00,347.14 170.31,352.65 175.62,352.65 180.94,352.65 186.25,352.99 191.56,353.77 196.88,362.41 202.19,362.41 207.50,363.71 212.81,363.71 218.12,370.12 223.44,370.12 228.75,370.12 234.06,375.80 239.38,376.33 244.69,381.50 250.00,381.50 255.31,381.95 260.62,381.95 265.94,381.95 271.25,388.46 276.56,388.46 281.88,388.46 287.19,388.46 292.50,388.46 297.81,388.46 303.12,388.46 308.44,394.96 313.75,394.96 319.06,394.96 324.38,397.19 329.69,397.19 335.00,397.19 340.31,397.19 345.62,397.19 350.94,397.19 356.25,397.19 361.56,397.19 366.88,397.19 372.19,402.53 377.50,402.53 382.81,402.53 388.12,405.51 393.44,409.35 398.75,409.35 404.06,409.35 409.38,409.35 414.69,414.54 420.00,414.54 425.31,414.54 430.62,414.54 435.94,414.54 441.25,414.54 446.56,414.54 451.88,419.11 457.19,419.11 462.50,422.43 467.81,422.43 473.12,422.43 478.44,423.84 483.75,423.84 489.06,427.80 494.38,427.80 499.69,428.47 505.00,428.47 510.31,429.48 515.62,429.48 520.94,432.68 526.25,432.68 531.56,432.68 536.88,433.94 542.19,433.94 547.50,433.94 552.81,441.42 558.12,441.42 563.44,441.42 568.75,441.42 574.06,441.42 579.38,441.42 584.69,441.42 590.00,442.44 595.31,442.44 600.62,444.35 605.94,444.35 611.25,444.35 616.56,444.35 621.88,446.93 627.19,446.93 632.50,446.93 637.81,446.93 643.12,446.93 648.44,446.93 653.75,446.93 659.06,446.93 664.38,446.93 669.69,447.03 675.00,447.03 680.31,447.03 685.62,447.03 690.94,447.03 696.25,447.03 701.56,447.03 706.88,447.03 712.19,447.03 717.50,447.95 722.81,447.95 728.12,447.95 733.44,447.95 738.75,447.95 744.06,447.95 749.38,447.95 754.69,447.95 760.00,447.95 765.31,447.95 770.62,447.95 775.94,447.95 781.25,447.95 786.56,447.95 791.88,447.95 797.19,447.95 802.50,447.95 807.81,450.04 813.12,450.04 818.44,450.04 823.75,450.04 829.06,450.04 834.38,450.04 839.69,450.04 845.00,450.04 850.31,450.04 855.62,451.24 860.94,451.24 866.25,451.24 871.56,451.24 876.88,451.70 882.19,451.70 887.50,451.70 892.81,451.70 898.12,451.70 903.44,451.70 908.75,451.70 914.06,451.70 919.38,451.70 924.69,454.80 930.00,454.80" fill="none" stroke="#16a34a" stroke-width="2.2" stroke-linejoin="round"/>
<line x1="620" y1="498" x2="642" y2="498" stroke="#16a34a" stroke-width="3"/>
<text x="648" y="502" font-family="system-ui" font-size="11">explotacao · seed 22</text>
<line x1="80" y1="465" x2="930" y2="465" stroke="#334155"/>
<text x="505.0" y="528" text-anchor="middle" font-family="system-ui" font-size="12">Geração</text>
<text x="18" y="260.0" text-anchor="middle" transform="rotate(-90 18 260)" font-family="system-ui" font-size="12">Melhor custo</text>
</svg>
