<svg xmlns="http://www.w3.org/2000/svg" width="960" height="540" viewBox="0 0 960 540" role="img">
<title>Convergência — Cenário pequeno</title>
<rect width="100%" height="100%" fill="#ffffff"/>
<text x="80" y="30" font-family="system-ui" font-size="20" font-weight="700">Convergência — Cenário pequeno</text>
<line x1="80" y1="55.00" x2="930" y2="55.00" stroke="#e2e8f0"/>
<text x="70" y="59.00" text-anchor="end" font-family="system-ui" font-size="11">1.539</text>
<line x1="80" y1="137.00" x2="930" y2="137.00" stroke="#e2e8f0"/>
<text x="70" y="141.00" text-anchor="end" font-family="system-ui" font-size="11">1.486</text>
<line x1="80" y1="219.00" x2="930" y2="219.00" stroke="#e2e8f0"/>
<text x="70" y="223.00" text-anchor="end" font-family="system-ui" font-size="11">1.433</text>
<line x1="80" y1="301.00" x2="930" y2="301.00" stroke="#e2e8f0"/>
<text x="70" y="305.00" text-anchor="end" font-family="system-ui" font-size="11">1.380</text>
<line x1="80" y1="383.00" x2="930" y2="383.00" stroke="#e2e8f0"/>
<text x="70" y="387.00" text-anchor="end" font-family="system-ui" font-size="11">1.327</text>
<line x1="80" y1="465.00" x2="930" y2="465.00" stroke="#e2e8f0"/>
<text x="70" y="469.00" text-anchor="end" font-family="system-ui" font-size="11">1.274</text>
<polyline points="80.00,55.00 93.49,267.92 106.98,267.92 120.48,275.38 133.97,351.91 147.46,351.91 160.95,386.50 174.44,465.00 187.94,465.00 201.43,465.00 214.92,465.00 228.41,465.00 241.90,465.00 255.40,465.00 268.89,465.00 282.38,465.00 295.87,465.00 309.37,465.00 322.86,465.00 336.35,465.00 349.84,465.00 363.33,465.00 376.83,465.00 390.32,465.00 403.81,465.00 417.30,465.00 430.79,465.00 444.29,465.00 457.78,465.00 471.27,465.00 484.76,465.00 498.25,465.00 511.75,465.00 525.24,465.00 538.73,465.00 552.22,465.00 565.71,465.00 579.21,465.00 592.70,465.00 606.19,465.00 619.68,465.00 633.17,465.00 646.67,465.00 660.16,465.00 673.65,465.00 687.14,465.00 700.63,465.00 714.13,465.00 727.62,465.00 741.11,465.00 754.60,465.00 768.10,465.00 781.59,465.00 795.08,465.00 808.57,465.00 822.06,465.00 835.56,465.00 849.05,465.00" fill="none" stroke="#2563eb" stroke-width="2.2" stroke-linejoin="round"/>
<line x1="80" y1="498" x2="102" y2="498" stroke="#2563eb" stroke-width="3"/>
<text x="108" y="502" font-family="system-ui" font-size="11">balanceada · seed 11</text>
<polyline points="80.00,55.00 93.49,130.04 106.98,130.04 120.48,205.45 133.97,205.45 147.46,205.45 160.95,330.49 174.44,359.86 187.94,359.86 201.43,359.86 214.92,359.86 228.41,465.00 241.90,465.00 255.40,465.00 268.89,465.00 282.38,465.00 295.87,465.00 309.37,465.00 322.86,465.00 336.35,465.00 349.84,465.00 363.33,465.00 376.83,465.00 390.32,465.00 403.81,465.00 417.30,465.00 430.79,465.00 444.29,465.00 457.78,465.00 471.27,465.00 484.76,465.00 498.25,465.00 511.75,465.00 525.24,465.00 538.73,465.00 552.22,465.00 565.71,465.00 579.21,465.00 592.70,465.00 606.19,465.00 619.68,465.00 633.17,465.00 646.67,465.00 660.16,465.00 673.65,465.00 687.14,465.00 700.63,465.00 714.13,465.00 727.62,465.00 741.11,465.00 754.60,465.00 768.10,465.00 781.59,465.00 795.08,465.00 808.57,465.00 822.06,465.00 835.56,465.00 849.05,465.00 862.54,465.00 876.03,465.00 889.52,465.00 903.02,465.00" fill="none" stroke="#dc2626" stroke-width="2.2" stroke-linejoin="round"/>
<line x1="350" y1="498" x2="372" y2="498" stroke="#dc2626" stroke-width="3"/>
<text x="378" y="502" font-family="system-ui" font-size="11">exploracao · seed 11</text>
<polyline points="80.00,55.00 93.49,206.78 106.98,297.14 120.48,297.14 133.97,297.14 147.46,297.14 160.95,297.14 174.44,297.14 187.94,297.14 201.43,297.14 214.92,297.14 228.41,369.23 241.90,369.23 255.40,465.00 268.89,465.00 282.38,465.00 295.87,465.00 309.37,465.00 322.86,465.00 336.35,465.00 349.84,465.00 363.33,465.00 376.83,465.00 390.32,465.00 403.81,465.00 417.30,465.00 430.79,465.00 444.29,465.00 457.78,465.00 471.27,465.00 484.76,465.00 498.25,465.00 511.75,465.00 525.24,465.00 538.73,465.00 552.22,465.00 565.71,465.00 579.21,465.00 592.70,465.00 606.19,465.00 619.68,465.00 633.17,465.00 646.67,465.00 660.16,465.00 673.65,465.00 687.14,465.00 700.63,465.00 714.13,465.00 727.62,465.00 741.11,465.00 754.60,465.00 768.10,465.00 781.59,465.00 795.08,465.00 808.57,465.00 822.06,465.00 835.56,465.00 849.05,465.00 862.54,465.00 876.03,465.00 889.52,465.00 903.02,465.00 916.51,465.00 930.00,465.00" fill="none" stroke="#16a34a" stroke-width="2.2" stroke-linejoin="round"/>
<line x1="620" y1="498" x2="642" y2="498" stroke="#16a34a" stroke-width="3"/>
<text x="648" y="502" font-family="system-ui" font-size="11">explotacao · seed 11</text>
<line x1="80" y1="465" x2="930" y2="465" stroke="#334155"/>
<text x="505.0" y="528" text-anchor="middle" font-family="system-ui" font-size="12">Geração</text>
<text x="18" y="260.0" text-anchor="middle" transform="rotate(-90 18 260)" font-family="system-ui" font-size="12">Melhor custo</text>
</svg>
